<?xml version="1.0" encoding="UTF-8" standalone="no"?>
<svg
   xmlns:dc="http://purl.org/dc/elements/1.1/"
   xmlns:cc="http://creativecommons.org/ns#"
   xmlns:rdf="http://www.w3.org/1999/02/22-rdf-syntax-ns#"
   xmlns:svg="http://www.w3.org/2000/svg"
   xmlns="http://www.w3.org/2000/svg"
   xmlns:sodipodi="http://sodipodi.sourceforge.net/DTD/sodipodi-0.dtd"
   xmlns:inkscape="http://www.inkscape.org/namespaces/inkscape"
   height="40"
   id="Layer_1"
   version="1.1"
   viewBox="0 0 40 40"
   width="40"
   xml:space="preserve"
   sodipodi:docname="css.svg"
   inkscape:version="0.92.5 (2060ec1f9f, 2020-04-08)"><metadata
     id="metadata16"><rdf:RDF><cc:Work
         rdf:about=""><dc:format>image/svg+xml</dc:format><dc:type
           rdf:resource="http://purl.org/dc/dcmitype/StillImage" /><dc:title /></cc:Work></rdf:RDF></metadata><sodipodi:namedview
     pagecolor="#ffffff"
     bordercolor="#666666"
     borderopacity="1"
     objecttolerance="10"
     gridtolerance="10"
     guidetolerance="10"
     inkscape:pageopacity="0"
     inkscape:pageshadow="2"
     inkscape:window-width="1366"
     inkscape:window-height="708"
     id="namedview14"
     showgrid="false"
     inkscape:zoom="4.8510814"
     inkscape:cx="36.067757"
     inkscape:cy="-0.87997625"
     inkscape:window-x="0"
     inkscape:window-y="28"
     inkscape:window-maximized="1"
     inkscape:current-layer="Layer_1" /><defs
     id="defs19" /><g
     id="g3021"
     transform="translate(0,-472)" /><g
     id="g2990"
     transform="scale(0.078125)"><g
       id="g3759"><rect
         height="512"
         id="rect2989"
         rx="70"
         ry="70"
         style="fill:#379ad6;fill-opacity:1;stroke:none"
         transform="scale(-1)"
         width="512"
         x="-512"
         y="-512" /></g><g
       id="g3015"
       transform="matrix(1.2330496,0,0,1.2330496,-59.66069,-59.660695)"><polygon
         id="polygon3962"
         points="389.402,450.579 420.191,117.07 91.809,117.07 122.593,450.579 255.999,486.501 "
         style="fill:#ffffff;fill-opacity:1;fill-rule:evenodd"
         transform="matrix(0.66995146,0,0,0.66995146,84.49242,84.15745)" /><polygon
         id="polygon3968"
         points="364.257,428.863 389.175,144.084 255.997,144.084 255.997,457.852 256.298,457.933 "
         style="fill:#ffffff;fill-opacity:1;fill-rule:evenodd"
         transform="matrix(0.66995146,0,0,0.66995146,84.49242,84.15745)" /><path
         d="m 190.7226,143.04082 h 33.95515 v -13.27977 h -19.40246 v -13.29854 h 19.40246 V 101.91049 H 190.7226 Z m 48.4663,-26.57764 c 4.54294,4.54294 6.91189,6.71693 13.48277,13.28849 -3.84016,0 -13.48277,0.0141 -13.48277,0.0127 v 13.27642 h 33.95783 v -13.27974 l -13.56384,-13.29854 h 13.56384 V 101.91049 H 239.1889 c 0,0 0,7.30381 0,14.55269 z m 82.08848,-14.55269 h -33.95984 c 0,0 0,7.30381 0,14.55269 4.54295,4.54294 6.91323,6.71693 13.48412,13.28849 -3.83882,0 -13.48412,0.0141 -13.48412,0.0127 v 13.27642 h 33.95984 v -13.27974 l -13.5645,-13.29854 h 13.5645 z"
         id="path4016"
         style="fill:#ffffff;fill-opacity:1;fill-rule:evenodd"
         inkscape:connector-curvature="0" /><path
         d="m 186.10184,207.69363 4,27.25 69.5,-0.5 -67,28.25 1.75,27 h 95 l -2.25,35.5 -30.5,9.25 -31,-8.5 -1.75,-21.25 h -27.25 l 3.5,41.75 55.75,16.25 56.75,-15.75 7,-84.25 h -64.25 l 66.75,-28.25 2,-27 z"
         id="path4169"
         style="fill:#379ad6;fill-opacity:1;stroke:none"
         inkscape:connector-curvature="0" /></g></g><g
     id="Layer_1_1_"
     transform="translate(0,-472)" /></svg>