<?xml version="1.0" encoding="UTF-8" standalone="no"?>
<svg
   xmlns:dc="http://purl.org/dc/elements/1.1/"
   xmlns:cc="http://creativecommons.org/ns#"
   xmlns:rdf="http://www.w3.org/1999/02/22-rdf-syntax-ns#"
   xmlns:svg="http://www.w3.org/2000/svg"
   xmlns="http://www.w3.org/2000/svg"
   xmlns:sodipodi="http://sodipodi.sourceforge.net/DTD/sodipodi-0.dtd"
   xmlns:inkscape="http://www.inkscape.org/namespaces/inkscape"
   height="40"
   id="Layer_1"
   version="1.1"
   viewBox="0 0 40 40"
   width="40"
   xml:space="preserve"
   sodipodi:docname="html.svg"
   inkscape:version="0.92.5 (2060ec1f9f, 2020-04-08)"><metadata
     id="metadata15"><rdf:RDF><cc:Work
         rdf:about=""><dc:format>image/svg+xml</dc:format><dc:type
           rdf:resource="http://purl.org/dc/dcmitype/StillImage" /><dc:title></dc:title></cc:Work></rdf:RDF></metadata><sodipodi:namedview
     pagecolor="#ffffff"
     bordercolor="#666666"
     borderopacity="1"
     objecttolerance="10"
     gridtolerance="10"
     guidetolerance="10"
     inkscape:pageopacity="0"
     inkscape:pageshadow="2"
     inkscape:window-width="1366"
     inkscape:window-height="708"
     id="namedview13"
     showgrid="false"
     fit-margin-top="0"
     fit-margin-left="0"
     fit-margin-right="0"
     fit-margin-bottom="0"
     inkscape:zoom="0.4609375"
     inkscape:cx="218.0339"
     inkscape:cy="256"
     inkscape:window-x="0"
     inkscape:window-y="28"
     inkscape:window-maximized="1"
     inkscape:current-layer="Layer_1" /><defs
     id="defs19" /><g
     id="g3021"
     transform="translate(0,-472)" /><g
     id="Layer_1_1_"
     transform="translate(0,-472)" /><g
     id="Layer_1_1_-7"
     transform="translate(-819.672,-533.9)" /><g
     id="g2995"
     transform="scale(0.078125)"><rect
       height="512"
       id="rect2989"
       rx="70"
       ry="70"
       style="fill:#e44d26;fill-opacity:1;stroke:none"
       transform="scale(-1)"
       width="512"
       x="-512"
       y="-512" /><g
       id="g4311"
       transform="matrix(1.2237158,0,0,1.2237158,612.42619,-116.80646)"><polygon
         id="polygon4184"
         points="389.249,449.489 418.938,116.909 93.063,116.909 122.719,449.542 255.8,486.486 "
         style="fill:#ffffff;fill-rule:evenodd"
         transform="matrix(0.67510549,0,0,0.67510549,-464.09284,131.48662)" /><path
         d="m -353.99731,163.21455 h -12.80338 v -13.82818 h -13.99561 v 41.87544 h 13.99629 v -14.02262 h 12.8027 v 14.02262 h 13.99629 v -41.87544 h -13.99697 v 13.82818 z m 20.08101,0.0581 h 12.32203 v 27.9892 h 13.99696 v -27.9892 h 12.32742 v -13.88624 h -38.64641 z m 68.35173,0.82768 -8.97823,-14.71392 h -14.59375 v 41.87544 h 13.69451 v -20.75612 l 9.63578,14.88945 h 0.24102 l 9.62903,-14.88945 v 20.75612 h 13.93822 v -41.87544 h -14.59983 z m 44.53401,13.31983 v -28.03375 h -14.00034 v 41.87544 h 33.68372 v -13.84169 z"
         id="path4208"
         style="fill:#ffffff;fill-rule:evenodd"
         inkscape:connector-curvature="0" /><path
         d="m -360.5,255.75 h 138.25 l -2.25,28.5 h -105.75 l 3,27.5 h 99.5 l -7,85.25 -56,15.25 -56.75,-15.25 -4.25,-43.5 H -324 l 2.25,21.5 30.75,8.75 30.75,-8.75 3,-35.25 h -95.5 z"
         id="path4309"
         style="fill:#e44d26;fill-opacity:1;stroke:none"
         transform="translate(-0.32800146,-0.07000866)"
         inkscape:connector-curvature="0" /></g></g></svg>