<svg xmlns="http://www.w3.org/2000/svg" xmlns:xlink="http://www.w3.org/1999/xlink" width="500" zoomAndPan="magnify" viewBox="0 0 375 374.999991" height="500" preserveAspectRatio="xMidYMid meet" version="1.0"><defs><clipPath id="id1"><path d="M 121.773438 112.5 L 253.023438 112.5 L 253.023438 262.5 L 121.773438 262.5 Z M 121.773438 112.5 " clip-rule="nonzero"/></clipPath></defs><rect x="-37.5" width="450" fill="#ffffff" y="-37.499999" height="449.999989" fill-opacity="1"/><rect x="-37.5" width="450" fill="#ffffff" y="-37.499999" height="449.999989" fill-opacity="1"/><rect x="-37.5" width="450" fill="#ffffff" y="-37.499999" height="449.999989" fill-opacity="1"/><rect x="-37.5" width="450" fill="#ffffff" y="-37.499999" height="449.999989" fill-opacity="1"/><g clip-path="url(#id1)"><path fill="#e44d26" d="M 133.6875 247.175781 L 121.734375 112.921875 L 253.058594 112.921875 L 241.097656 247.15625 L 187.3125 262.082031 Z M 133.6875 247.175781 " fill-opacity="1" fill-rule="nonzero"/></g><path fill="#f16529" d="M 230.855469 238.605469 L 241.078125 123.902344 L 187.398438 123.902344 L 187.398438 250.675781 Z M 230.855469 238.605469 " fill-opacity="1" fill-rule="nonzero"/><path fill="#ebebeb" d="M 187.34375 140.363281 L 146.171875 140.363281 L 150.605469 190.15625 L 187.398438 190.15625 L 187.398438 173.691406 L 165.644531 173.691406 L 164.140625 156.832031 L 187.398438 156.832031 L 187.398438 140.363281 Z M 187.398438 216.398438 L 187.328125 216.417969 L 169.019531 211.46875 L 167.855469 198.335938 L 151.339844 198.335938 L 153.644531 224.1875 L 187.324219 233.511719 L 187.398438 233.488281 Z M 187.398438 216.398438 " fill-opacity="1" fill-rule="nonzero"/><path fill="#ffffff" d="M 187.34375 190.15625 L 207.585938 190.15625 L 205.726562 211.503906 L 187.386719 216.460938 L 187.386719 233.589844 L 221.09375 224.234375 L 225.609375 173.683594 L 187.398438 173.683594 Z M 228.132812 144.785156 L 228.523438 140.363281 L 187.332031 140.363281 L 187.332031 156.828125 L 227.042969 156.828125 L 227.367188 153.128906 Z M 228.132812 144.785156 " fill-opacity="1" fill-rule="nonzero"/></svg>