<svg xmlns="http://www.w3.org/2000/svg" width="60" height="46" viewBox="0 0 60 46">
  <path fill="#CF649A" d="M51.6491228,25.8011696 C49.5555556,25.8128655 47.7426901,26.3157895 46.2222222,27.0643275 C45.6608187,25.9532164 45.0994152,24.9824561 45.005848,24.2573099 C44.9005848,23.4152047 44.7719298,22.9005848 44.9005848,21.8947368 C45.0292398,20.8888889 45.6140351,19.4619883 45.6140351,19.3450292 C45.6023392,19.2397661 45.4853801,18.7251462 44.2807018,18.7134503 C43.0760234,18.7017544 42.0350877,18.9473684 41.9181287,19.2631579 C41.8011696,19.5789474 41.5672515,20.3040936 41.4152047,21.0526316 C41.2046784,22.1520468 39.005848,26.0467836 37.754386,28.0935673 C37.3450292,27.2982456 36.994152,26.5964912 36.9239766,26.0350877 C36.8187135,25.1929825 36.6900585,24.6783626 36.8187135,23.6725146 C36.9473684,22.6666667 37.5321637,21.2397661 37.5321637,21.122807 C37.5204678,21.0175439 37.4035088,20.502924 36.1988304,20.4912281 C34.994152,20.4795322 33.9532164,20.7251462 33.8362573,21.0409357 C33.7192982,21.3567251 33.5906433,22.1052632 33.3333333,22.8304094 C33.0877193,23.5555556 30.1637427,30.0584795 29.4035088,31.754386 C29.0175439,32.619883 28.6783626,33.3099415 28.4327485,33.7777778 C28.1871345,34.245614 28.4210526,33.8128655 28.3976608,33.8596491 C28.1871345,34.2573099 28.0701754,34.4795322 28.0701754,34.4795322 L28.0701754,34.4912281 C27.9064327,34.7836257 27.7309942,35.0643275 27.6491228,35.0643275 C27.5906433,35.0643275 27.4736842,34.2807018 27.6725146,33.2046784 C28.1052632,30.9473684 29.1578947,27.4269006 29.1461988,27.2982456 C29.1461988,27.2397661 29.3450292,26.619883 28.4678363,26.3040936 C27.6140351,25.9883041 27.3099415,26.5146199 27.2397661,26.5146199 C27.1695906,26.5146199 27.1111111,26.7017544 27.1111111,26.7017544 C27.1111111,26.7017544 28.0584795,22.7368421 25.2982456,22.7368421 C23.5672515,22.7368421 21.1812865,24.619883 20,26.3391813 C19.251462,26.748538 17.6608187,27.6140351 15.9766082,28.5380117 C15.3333333,28.8888889 14.6666667,29.2631579 14.0350877,29.6023392 L13.9064327,29.4619883 C10.5614035,25.8947368 4.37426901,23.3684211 4.63157895,18.5730994 C4.7251462,16.8304094 5.33333333,12.2339181 16.5146199,6.66666667 C25.6725146,2.10526316 33.005848,3.35672515 34.2807018,6.14035088 C36.0935673,10.1169591 30.3625731,17.5087719 20.8421053,18.5730994 C17.2163743,18.9824561 15.3099415,17.5789474 14.8304094,17.0526316 C14.3274854,16.502924 14.2573099,16.4795322 14.0701754,16.5847953 C13.7660819,16.748538 13.9532164,17.2397661 14.0701754,17.5321637 C14.3508772,18.2690058 15.5204678,19.5789474 17.5087719,20.2339181 C19.251462,20.8070175 23.5087719,21.122807 28.6549708,19.1345029 C34.4210526,16.9005848 38.9239766,10.7017544 37.6023392,5.52046784 C36.2573099,0.245614035 27.5087719,-1.48538012 19.2397661,1.4502924 C14.3157895,3.20467836 8.98245614,5.94152047 5.14619883,9.53216374 C0.584795322,13.7894737 -0.140350877,17.5087719 0.16374269,19.0526316 C1.22807018,24.5614035 8.81871345,28.1520468 11.8596491,30.8070175 C11.7076023,30.8888889 11.5672515,30.9707602 11.4385965,31.0409357 C9.91812865,31.7894737 4.12865497,34.8187135 2.67836257,38.0233918 C1.04093567,41.6491228 2.93567251,44.2573099 4.19883041,44.6081871 C8.10526316,45.6959064 12.1052632,43.7426901 14.2690058,40.5263158 C16.4210526,37.3099415 16.1637427,33.1345029 15.1695906,31.2280702 L15.1345029,31.1578947 L16.3274854,30.4561404 C17.0994152,30 17.8596491,29.5789474 18.5263158,29.2163743 C18.1520468,30.2339181 17.8830409,31.4385965 17.7426901,33.1929825 C17.5789474,35.251462 18.4210526,37.9181287 19.5321637,38.9707602 C20.0233918,39.4269006 20.6081871,39.4385965 20.9707602,39.4385965 C22.2573099,39.4385965 22.8421053,38.374269 23.4853801,37.0994152 C24.2807018,35.5438596 24.9824561,33.7426901 24.9824561,33.7426901 C24.9824561,33.7426901 24.1052632,38.619883 26.502924,38.619883 C27.380117,38.619883 28.2573099,37.4853801 28.6549708,36.9005848 L28.6549708,36.9122807 C28.6549708,36.9122807 28.6783626,36.877193 28.7251462,36.7953216 C28.8187135,36.6549708 28.8654971,36.5730994 28.8654971,36.5730994 L28.8654971,36.5497076 C29.2163743,35.9415205 30,34.5497076 31.1695906,32.245614 C32.6783626,29.2748538 34.128655,25.5555556 34.128655,25.5555556 C34.128655,25.5555556 34.2690058,26.4678363 34.7017544,27.9649123 C34.9590643,28.8538012 35.5204678,29.8245614 35.9532164,30.7719298 C35.6023392,31.2631579 35.3918129,31.5438596 35.3918129,31.5438596 L35.4035088,31.5555556 C35.122807,31.9298246 34.8070175,32.3274854 34.4795322,32.7251462 C33.2865497,34.1520468 31.8596491,35.7777778 31.6725146,36.245614 C31.4502924,36.7953216 31.497076,37.2046784 31.9298246,37.5321637 C32.245614,37.7660819 32.8070175,37.8128655 33.4035088,37.7660819 C34.4795322,37.6959064 35.2280702,37.4269006 35.6023392,37.2631579 C36.1871345,37.0526316 36.8538012,36.7368421 37.497076,36.2690058 C38.6666667,35.4035088 39.380117,34.1754386 39.3099415,32.5380117 C39.2748538,31.6374269 38.9824561,30.748538 38.619883,29.9064327 C38.7251462,29.754386 38.8304094,29.6023392 38.9356725,29.4385965 C40.7836257,26.7368421 42.2105263,23.7660819 42.2105263,23.7660819 C42.2105263,23.7660819 42.3508772,24.6783626 42.7836257,26.1754386 C43.005848,26.9356725 43.4502924,27.7660819 43.8479532,28.5847953 C42.1169591,30 41.0292398,31.6374269 40.6549708,32.7134503 C39.9649123,34.7017544 40.502924,35.6023392 41.5204678,35.8128655 C41.9766082,35.9064327 42.6315789,35.6959064 43.122807,35.4853801 C43.7309942,35.2865497 44.4678363,34.9473684 45.1461988,34.4444444 C46.3157895,33.5789474 47.4385965,32.374269 47.380117,30.748538 C47.3450292,30 47.1461988,29.2631579 46.877193,28.5614035 C48.3508772,27.9532164 50.2573099,27.6023392 52.6783626,27.8947368 C57.8830409,28.502924 58.9122807,31.754386 58.7134503,33.1111111 C58.5146199,34.4678363 57.4269006,35.2163743 57.0643275,35.4502924 C56.7017544,35.6725146 56.5847953,35.754386 56.619883,35.9181287 C56.6666667,36.1637427 56.8304094,36.1520468 57.1461988,36.1052632 C57.5789474,36.0350877 59.8830409,34.994152 59.9766082,32.4912281 C60.1169591,29.2748538 57.0643275,25.7660819 51.6491228,25.8011696 Z M11.5087719,39.3333333 C9.78947368,41.2163743 7.36842105,41.9298246 6.33918129,41.3216374 C5.22807018,40.6783626 5.66081871,37.9064327 7.77777778,35.9064327 C9.06432749,34.6900585 10.7368421,33.5672515 11.8362573,32.877193 C12.0818713,32.7251462 12.4561404,32.502924 12.9005848,32.2339181 C12.9707602,32.1871345 13.0175439,32.1637427 13.0175439,32.1637427 C13.0994152,32.1169591 13.1929825,32.0584795 13.2865497,32 C14.0701754,34.8538012 13.3216374,37.3567251 11.5087719,39.3333333 Z M24.0818713,30.7836257 C23.4853801,32.245614 22.2222222,36 21.4619883,35.7894737 C20.8070175,35.6140351 20.4093567,32.7719298 21.3333333,29.9649123 C21.8011696,28.5497076 22.7953216,26.8654971 23.380117,26.2105263 C24.3274854,25.1578947 25.3567251,24.8070175 25.6140351,25.2397661 C25.9181287,25.8011696 24.4561404,29.871345 24.0818713,30.7836257 Z M34.4561404,35.7426901 C34.1988304,35.871345 33.9649123,35.9649123 33.8596491,35.8947368 C33.7777778,35.8479532 33.9649123,35.6725146 33.9649123,35.6725146 C33.9649123,35.6725146 35.2631579,34.2807018 35.7777778,33.6374269 C36.0701754,33.2631579 36.4210526,32.8304094 36.7953216,32.3391813 L36.7953216,32.4795322 C36.7953216,34.1637427 35.1812865,35.2865497 34.4561404,35.7426901 Z M42.4561404,33.9181287 C42.2690058,33.7777778 42.2923977,33.3450292 42.9239766,31.9883041 C43.1695906,31.4502924 43.7309942,30.5497076 44.7017544,29.6959064 C44.8187135,30.0467836 44.8888889,30.3859649 44.877193,30.7017544 C44.8654971,32.8070175 43.3684211,33.5906433 42.4561404,33.9181287 Z" transform="translate(0 .857)"/>
</svg>
