<?xml version="1.0" encoding="utf-8"?>
<!-- Generator: Adobe Illustrator 25.0.0, SVG Export Plug-In . SVG Version: 6.00 Build 0)  -->
<svg width='40px' height='40px' version="1.1" id="Layer_1" xmlns="http://www.w3.org/2000/svg" xmlns:xlink="http://www.w3.org/1999/xlink" x="0px" y="0px"
	 viewBox="0 0 40 40" style="enable-background:new 0 0 40 40;" xml:space="preserve">
<style type="text/css">
	.st0{fill:#EDF2F7;}
	.st1{fill-rule:evenodd;clip-rule:evenodd;fill:url(#SVGID_1_);}
</style>
<g id="Surfaces">
	<g id="Drawing_Surface">
		<g id="Outline_no_shadow">
			<path class="st0" d="M7.1,0.5h25.8c3.9,0,7.1,3.2,7.1,7.1v24.8c0,3.9-3.2,7.1-7.1,7.1H7.1c-3.9,0-7.1-3.2-7.1-7.1V7.6
				C0,3.7,3.2,0.5,7.1,0.5z"/>
		</g>
	</g>
</g>
<g>
	
		<linearGradient id="SVGID_1_" gradientUnits="userSpaceOnUse" x1="6.2041" y1="1035.007" x2="33.7959" y2="1080.993" gradientTransform="matrix(1 0 0 1 0 -1038)">
		<stop  offset="0" style="stop-color:#2383AE"/>
		<stop  offset="1" style="stop-color:#6DD7B9"/>
	</linearGradient>
	<path class="st1" d="M13.1,17.3c0.9-3.7,3.2-5.6,6.9-5.6c5.6,0,6.2,4.1,8.9,4.8c1.9,0.5,3.5-0.2,4.8-2.1c-0.9,3.7-3.2,5.6-6.9,5.6
		c-5.6,0-6.2-4.1-8.9-4.8C16.1,14.7,14.4,15.4,13.1,17.3z M6.2,25.6c0.9-3.7,3.2-5.6,6.9-5.6c5.6,0,6.2,4.1,8.9,4.8
		c1.9,0.5,3.5-0.2,4.8-2.1c-0.9,3.7-3.2,5.6-6.9,5.6c-5.6,0-6.2-4.1-8.9-4.8C9.2,23,7.6,23.7,6.2,25.6z"/>
</g>
</svg>
