<?xml version="1.0" encoding="utf-8"?>
<!-- Generator: Adobe Illustrator 24.3.0, SVG Export Plug-In . SVG Version: 6.00 Build 0)  -->
<svg width='40px' height='40px' version="1.1" id="Layer_1" xmlns="http://www.w3.org/2000/svg" xmlns:xlink="http://www.w3.org/1999/xlink" x="0px" y="0px"
	 viewBox="0 0 128 128" style="enable-background:new 0 0 128 128;" xml:space="preserve">
<style type="text/css">
	.st0{fill:#20232A;}
	.st1{fill:#61DAFB;}
</style>
<g id="Surfaces">
	<g id="Drawing_Surface">
		<g id="Outline_no_shadow">
			<path class="st0" d="M22.8,1.7h82.5c12.5,0,22.6,10.1,22.6,22.6v79.3c0,12.5-10.1,22.6-22.6,22.6H22.8
				c-12.5,0-22.6-10.1-22.6-22.6V24.3C0.2,11.8,10.3,1.7,22.8,1.7z"/>
		</g>
	</g>
</g>
<g>
	<circle class="st1" cx="64.1" cy="64" r="9.8"/>
	<path class="st1" d="M101.2,47.9c-1.9-0.7-3.9-1.4-5.9-2c0.5-2.1,0.9-4.1,1.3-6.1c1.8-11.3-0.2-19.3-5.7-22.4
		c-1.6-0.9-3.4-1.4-5.5-1.4c-6,0-13.6,4.5-21.3,11.9c-7.7-7.5-15.3-11.9-21.3-11.9c-2.1,0-3.9,0.4-5.5,1.4
		c-5.5,3.2-7.5,11.1-5.7,22.4c0.3,2,0.8,4,1.3,6.1c-2.1,0.6-4,1.2-5.9,2C16.3,52,10.4,57.7,10.4,64S16.4,76,27,80.1
		c1.9,0.7,3.9,1.4,5.9,2c-0.5,2.1-0.9,4.1-1.3,6.1c-1.8,11.3,0.2,19.3,5.7,22.4c1.6,0.9,3.4,1.4,5.5,1.4c6.1,0,13.7-4.5,21.3-11.9
		c7.7,7.5,15.3,11.9,21.3,11.9c2.1,0,3.9-0.4,5.5-1.4c5.5-3.2,7.5-11.1,5.7-22.4c-0.3-2-0.8-4-1.3-6.1c2.1-0.6,4-1.2,5.9-2
		c10.7-4.1,16.5-9.8,16.5-16.1S111.9,52,101.2,47.9z M88.5,21.8c3.5,2.1,4.7,8.4,3.3,17.4c-0.3,1.8-0.7,3.7-1.2,5.7
		c-4.5-1-9.2-1.7-14.1-2.1c-2.9-4.1-5.9-7.8-8.9-11.1c6.3-6.3,12.8-10.5,18-10.5C86.6,21,87.7,21.2,88.5,21.8z M78.9,72.6
		c-1.5,2.7-3.3,5.5-5.2,8.2c-3.2,0.3-6.3,0.3-9.6,0.3c-3.3,0-6.5-0.1-9.6-0.3c-1.9-2.7-3.6-5.5-5.1-8.2c-1.6-2.8-3.2-5.7-4.5-8.6
		c1.4-2.8,2.9-5.7,4.5-8.6c1.5-2.7,3.3-5.5,5.2-8.2c3.2-0.3,6.3-0.3,9.6-0.3c3.3,0,6.5,0.1,9.6,0.3c1.9,2.7,3.6,5.5,5.1,8.2
		c1.6,2.8,3.2,5.7,4.5,8.6C82,66.8,80.6,69.7,78.9,72.6z M86,69.8c1.3,3,2.3,5.9,3.3,8.8c-2.9,0.7-6,1.2-9.3,1.6
		c1-1.6,2.1-3.3,3.1-5.1C84.2,73.3,85.1,71.5,86,69.8z M64.1,93c-2.1-2.2-4-4.6-5.9-7.1c2,0.1,3.9,0.2,5.9,0.2c2,0,3.9-0.1,5.9-0.2
		C68.1,88.4,66.2,90.8,64.1,93z M48.2,80.1c-3.3-0.4-6.3-0.9-9.3-1.6c0.9-2.8,2-5.8,3.3-8.8c0.9,1.7,1.9,3.5,2.9,5.2
		C46.1,76.8,47.1,78.4,48.2,80.1z M42.2,58.3c-1.3-3-2.3-5.9-3.3-8.8c2.9-0.7,6-1.2,9.3-1.6c-1,1.6-2.1,3.3-3.1,5.1
		C44,54.8,43.1,56.6,42.2,58.3z M64.1,35c2.1,2.2,4,4.6,5.9,7.1c-2-0.1-3.9-0.2-5.9-0.2c-2,0-3.9,0.1-5.9,0.2
		C60.1,39.7,62,37.3,64.1,35z M83.1,53L80,47.9c3.3,0.4,6.3,0.9,9.3,1.6c-0.9,2.8-2,5.8-3.3,8.8C85.1,56.6,84.2,54.8,83.1,53z
		 M36.4,39.2c-1.5-9-0.3-15.3,3.3-17.4c0.9-0.5,1.9-0.8,3-0.8c5.1,0,11.6,4.2,18,10.5c-3,3.3-6,7-8.9,11.1c-5,0.4-9.7,1.2-14.1,2.1
		C37.1,42.8,36.8,41,36.4,39.2z M15.2,64c0-4,4.9-8.3,13.5-11.5c1.7-0.7,3.6-1.3,5.5-1.8c1.4,4.3,3.1,8.8,5.1,13.4
		c-2.1,4.5-3.9,9-5.1,13.3C22.4,74,15.2,68.8,15.2,64z M39.7,106.3c-3.5-2.1-4.7-8.4-3.3-17.4c0.3-1.8,0.7-3.7,1.2-5.7
		c4.5,1,9.2,1.7,14.1,2.1c2.9,4.1,5.9,7.8,8.9,11.1c-6.3,6.3-12.8,10.5-18,10.5C41.6,107,40.5,106.8,39.7,106.3z M91.8,88.9
		c1.5,9,0.3,15.3-3.3,17.4c-0.9,0.5-1.9,0.8-3,0.8c-5.1,0-11.6-4.2-18-10.5c3-3.3,6-7,8.9-11.1c5-0.4,9.7-1.2,14.1-2.1
		C91.1,85.2,91.4,87.1,91.8,88.9z M99.5,75.5c-1.7,0.7-3.6,1.3-5.5,1.8c-1.4-4.3-3.1-8.8-5.1-13.4c2.1-4.5,3.9-9,5.1-13.3
		C105.8,54.1,113,59.2,113,64C113,68,108,72.3,99.5,75.5z"/>
</g>
</svg>